<svg width="500" height="444" viewBox="0 0 500 444" fill="none" xmlns="http://www.w3.org/2000/svg">
<path d="M251.134 432.576L16.1948 252.844L220.697 290.576L251.134 432.576Z" fill="#161F3D"/>
<path d="M192.162 159.233L219.746 285.968L13.3413 248.235L192.162 159.233Z" fill="#445EBD"/>
<path d="M192.479 154.913L19.0483 240.746L248.598 14.3529L192.479 154.913Z" fill="#5271E3"/>
<path d="M224.501 287.696L196.917 158.945V158.657L291.083 174.499L321.521 305.266L224.501 287.696Z" fill="#5C7EFD"/>
<path d="M255.89 431.424L225.453 291.44L320.57 309.01L255.89 431.424Z" fill="#2D3E7D"/>
<path d="M478.147 219.432L264.451 426.239L325.96 308.722L478.147 219.432Z" fill="#161F3D"/>
<path d="M253.671 13.7769L290.132 170.467L196.917 154.337L253.671 13.7769Z" fill="#5271E3"/>
<path d="M294.888 171.331L257.475 11.7607L486.708 203.878L294.888 171.331Z" fill="#2D3E7D"/>
<path d="M487.659 208.487L325.96 304.114L295.839 175.651L487.659 208.487Z" fill="#445EBD"/>
<path d="M7 248.811L324.057 307.57M7 248.811L254.305 6M7 248.811L254.939 438.337M7 248.811L194.064 156.065M324.057 307.57L494 207.335M324.057 307.57L254.939 438.337M324.057 307.57L254.305 6M494 207.335L254.305 6M494 207.335L254.939 438.337M494 207.335L194.064 156.065M254.305 6L194.064 156.065M254.939 438.337L194.064 156.065" stroke="#141623" stroke-width="8"/>
</svg>
